<svg width="48" height="32" viewBox="0 0 48 32" fill="none" xmlns="http://www.w3.org/2000/svg">
  <rect width="48" height="32" rx="4" fill="white"/>
  <path d="M30.8954 10H18.1046C14.1928 10 11 13.1309 11 17C11 20.8691 14.1928 24 18.1046 24H30.8954C34.8072 24 38 20.8691 38 17C38 13.1309 34.8072 10 30.8954 10Z" fill="#EEEEEE"/>
  <path d="M19.0251 21.196V13.0266H22.6891V21.196H19.0251Z" fill="#EA001B"/>
  <path d="M19.3275 17C19.3275 15.4269 20.0366 14.0311 21.1379 13.0266C20.2432 12.2326 19.0776 11.7645 17.8013 11.7645C14.5937 11.7645 11.9918 14.0991 11.9918 17C11.9918 19.9009 14.5937 22.2355 17.8013 22.2355C19.0776 22.2355 20.2432 21.7674 21.1379 20.9734C20.0366 19.9689 19.3275 18.5731 19.3275 17Z" fill="#EA001B"/>
  <path d="M36.997 17C36.997 19.9009 34.3951 22.2355 31.1875 22.2355C29.9112 22.2355 28.7456 21.7674 27.8509 20.9734C28.9522 19.9689 29.6613 18.5731 29.6613 17C29.6613 15.4269 28.9522 14.0311 27.8509 13.0266C28.7456 12.2326 29.9112 11.7645 31.1875 11.7645C34.3951 11.7645 36.997 14.0991 36.997 17Z" fill="#F79E1B"/>
  <path d="M36.2871 21.196V13.0266H32.6231V21.196H36.2871Z" fill="#F79E1B"/>
</svg> 