<svg width="48" height="32" viewBox="0 0 48 32" fill="none" xmlns="http://www.w3.org/2000/svg">
  <rect width="48" height="32" rx="4" fill="white"/>
  <path d="M18.7492 12.6431L15.1133 19.8H12.8555L11.0508 14.1638C10.9302 13.72 10.8232 13.5481 10.4974 13.3762C9.93909 13.0969 9.02734 12.8348 8.25 12.6802L8.32226 12.6431H11.7461C12.2409 12.6431 12.6868 12.9966 12.7954 13.5309L13.7129 17.7583L15.9889 12.6431H18.7492Z" fill="#1A1F71"/>
  <path d="M26.897 17.3678C26.904 14.9839 23.5049 14.8462 23.5254 13.7505C23.5317 13.4498 23.8228 13.1306 24.4477 13.0423C24.7524 13.0004 25.5576 12.9712 26.4736 13.3256L26.9023 11.3877C26.4385 11.2115 25.8398 11.0416 25.0938 11.0416C22.4692 11.0416 20.6553 12.4001 20.6396 14.3877C20.623 15.8689 21.9463 16.6836 22.9512 17.1675C23.9873 17.6631 24.3379 17.9834 24.3326 18.4247C24.3251 19.1093 23.5156 19.4046 22.7598 19.416C21.5215 19.4349 20.8198 19.0899 20.248 18.8339L19.8018 20.8297C20.376 21.0828 21.4214 21.3053 22.502 21.3157C25.2803 21.3157 27.0762 19.9747 27.0879 17.8637L26.897 17.3678Z" fill="#1A1F71"/>
  <path d="M31.1016 19.8H33.498L31.5615 12.6431H29.7168C29.2969 12.6431 28.9561 12.9016 28.8184 13.2923L25.2852 19.8H28.0455L28.5117 18.5537H31.4697L31.1016 19.8ZM29.1826 16.7631L30.2344 13.9373L30.8594 16.7631H29.1826Z" fill="#1A1F71"/>
  <path d="M22.1855 12.6431L19.9453 19.8H17.3262L19.5723 12.6431H22.1855Z" fill="#1A1F71"/>
  <path d="M36.4141 12.6431L34.1738 19.8H31.5547L33.8008 12.6431H36.4141Z" fill="#1A1F71"/>
  <path d="M39.7461 19.8H42.1426L40.2061 12.6431H38.3613C37.9414 12.6431 37.6006 12.9016 37.4629 13.2923L33.9297 19.8H36.69L37.1562 18.5537H40.1143L39.7461 19.8ZM37.8271 16.7631L38.8789 13.9373L39.5039 16.7631H37.8271Z" fill="#1A1F71"/>
</svg> 